<?xml version="1.0" standalone="no"?>
<!DOCTYPE svg PUBLIC "-//W3C//DTD SVG 20010904//EN"
 "http://www.w3.org/TR/2001/REC-SVG-20010904/DTD/svg10.dtd">
<svg version="1.0" xmlns="http://www.w3.org/2000/svg"
 width="600.000000pt" height="600.000000pt" viewBox="0 0 600.000000 600.000000"
 preserveAspectRatio="xMidYMid meet">
<metadata>
Created by potrace 1.11, written by Peter Selinger 2001-2013
</metadata>
<g transform="translate(0.000000,600.000000) scale(0.100000,-0.100000)"
fill="#000000" stroke="none">
<path d="M5042 5644 c-18 -18 -32 -31 -32 -28 0 2 -15 -12 -32 -33 -53 -59
-78 -83 -90 -83 -6 0 -9 -2 -6 -5 3 -3 -155 -167 -351 -365 -196 -198 -356
-360 -356 -360 0 0 -170 -172 -378 -382 -343 -346 -416 -428 -408 -462 1 -4
-2 -13 -7 -20 -18 -25 -1 -138 26 -168 8 -10 12 -18 9 -18 -9 0 17 -31 92
-106 35 -35 67 -64 72 -64 5 0 9 -7 9 -15 0 -8 5 -15 10 -15 25 0 5 -30 -57
-85 -37 -33 -80 -72 -96 -87 -17 -16 -34 -28 -38 -28 -5 0 -8 -3 -7 -7 2 -5
-1 -10 -7 -13 -5 -3 -23 -18 -40 -35 -74 -72 -169 -155 -177 -155 -5 0 -6 -4
-3 -10 3 -5 3 -10 -2 -10 -4 0 -31 -20 -58 -45 -28 -25 -53 -45 -57 -45 -5 0
-8 -7 -8 -17 0 -9 -3 -14 -6 -10 -3 3 -26 -14 -50 -39 -25 -24 -48 -44 -52
-44 -4 0 -20 -15 -36 -34 -31 -37 -46 -37 -81 -1 -11 11 -49 45 -84 75 -36 30
-77 66 -92 80 -14 14 -52 48 -83 75 -32 28 -67 59 -80 70 -177 158 -190 169
-266 235 -94 82 -113 102 -102 109 11 7 46 82 44 94 -1 4 2 7 8 7 5 0 7 6 4
14 -3 8 -1 17 5 20 9 6 30 88 36 141 1 11 3 20 5 20 4 0 6 180 1 189 -2 5 -5
25 -7 45 -4 46 -12 87 -24 136 -11 43 -20 82 -22 103 -1 6 -5 12 -9 12 -4 0
-13 23 -20 50 -7 28 -16 50 -19 50 -4 0 -12 17 -18 39 -7 21 -19 44 -26 51 -8
6 -12 18 -9 26 3 8 1 14 -4 14 -5 0 -15 16 -23 35 -8 19 -17 35 -22 35 -4 0
-8 7 -8 15 0 8 -4 15 -10 15 -5 0 -10 6 -10 13 0 7 -8 22 -18 33 -10 10 -21
27 -25 37 -3 9 -11 17 -17 17 -5 0 -10 7 -10 15 0 8 -4 15 -10 15 -5 0 -10 7
-10 15 0 7 -6 18 -13 22 -6 4 -24 24 -38 43 -39 52 -137 150 -149 150 -5 0
-10 7 -10 15 0 8 -4 15 -8 15 -5 0 -20 9 -33 21 -13 11 -35 29 -49 40 -14 10
-45 35 -70 54 -25 19 -50 35 -55 35 -6 0 -16 9 -23 20 -7 12 -17 18 -22 15 -6
-3 -10 -1 -10 5 0 6 -4 9 -9 6 -5 -3 -12 1 -15 10 -3 8 -10 13 -15 10 -5 -3
-14 1 -21 9 -7 8 -16 12 -21 9 -5 -3 -9 -1 -9 5 0 5 -16 15 -35 21 -19 6 -35
16 -35 21 0 5 -6 9 -13 9 -7 0 -33 10 -58 22 -24 12 -51 23 -59 24 -8 1 -48
14 -88 28 -40 14 -86 27 -103 28 -16 1 -29 5 -29 8 0 3 -10 7 -22 8 -13 1 -41
3 -63 6 -57 7 -232 9 -242 3 -7 -5 -93 -19 -120 -20 -7 0 -13 -4 -13 -9 0 -4
-4 -8 -9 -8 -5 0 -22 -5 -38 -12 -15 -6 -31 -11 -35 -10 -5 1 -8 -3 -8 -8 0
-5 -3 -9 -7 -8 -10 3 -87 -43 -91 -54 -2 -4 -8 -8 -13 -8 -13 0 -93 -84 -126
-134 -15 -22 -32 -44 -36 -47 -5 -3 -9 -10 -9 -15 0 -5 -5 -20 -11 -34 -6 -14
-11 -28 -11 -32 -1 -3 -4 -10 -9 -14 -4 -4 -7 -16 -7 -26 0 -10 -5 -18 -11
-18 -5 0 -8 -3 -6 -7 3 -5 -1 -35 -8 -68 -12 -60 -12 -267 0 -335 4 -19 7 -45
8 -57 1 -13 5 -23 9 -23 4 0 5 -9 3 -20 -2 -11 -1 -20 3 -20 4 0 9 -10 9 -22
1 -13 6 -24 11 -26 6 -2 8 -12 5 -22 -3 -12 0 -20 6 -20 7 0 9 -5 6 -10 -4 -6
-1 -17 5 -25 6 -8 9 -19 5 -25 -3 -5 -2 -10 3 -10 5 0 17 -21 27 -47 10 -27
21 -50 24 -53 3 -3 26 -43 50 -90 25 -47 47 -87 51 -90 3 -3 17 -21 30 -40 13
-19 27 -37 30 -40 4 -3 11 -12 16 -21 31 -55 203 -236 289 -304 27 -22 63 -52
80 -67 16 -16 36 -28 43 -28 6 0 12 -4 12 -10 0 -5 7 -10 15 -10 8 0 15 -4 15
-10 0 -5 7 -10 15 -10 8 0 15 -4 15 -10 0 -5 7 -10 15 -10 8 0 15 -5 15 -12 0
-6 3 -8 6 -5 4 3 18 -3 32 -13 13 -11 30 -20 37 -20 7 0 18 -7 25 -15 7 -8 16
-13 20 -10 4 3 13 -2 20 -10 7 -8 21 -15 31 -15 11 0 19 -4 19 -10 0 -5 3 -9
8 -8 4 0 15 -2 25 -5 9 -4 25 -10 35 -14 9 -3 19 -7 22 -8 3 -1 13 -5 22 -9 9
-4 23 -9 32 -10 8 -1 19 -5 22 -9 4 -4 19 -7 34 -7 15 0 30 -3 34 -7 3 -4 17
-8 29 -10 12 -2 45 -8 72 -13 28 -6 67 -11 88 -12 20 -1 37 -6 37 -12 0 -7 3
-7 8 -1 4 6 38 11 76 12 37 1 94 8 125 14 31 7 59 12 64 11 4 -1 7 2 7 7 0 5
7 8 17 7 14 -2 72 22 113 49 28 17 43 14 72 -17 15 -16 28 -31 28 -33 0 -2 24
-28 53 -58 28 -30 81 -86 117 -124 181 -195 270 -290 317 -340 29 -31 53 -60
53 -65 0 -5 5 -6 10 -3 6 3 10 1 10 -4 0 -6 14 -24 30 -40 l31 -29 -62 -53
c-34 -30 -79 -71 -100 -91 -22 -21 -39 -36 -39 -33 0 2 -15 -11 -33 -28 -19
-18 -59 -54 -90 -80 -30 -27 -71 -63 -89 -80 -19 -18 -56 -50 -83 -72 -27 -22
-68 -59 -91 -82 -24 -24 -46 -43 -50 -43 -3 0 -25 -18 -47 -39 -68 -64 -111
-101 -120 -101 -5 0 -5 -4 -2 -10 3 -5 2 -10 -3 -10 -5 0 -20 -10 -34 -22 -14
-13 -41 -36 -59 -52 -19 -15 -65 -56 -103 -90 -99 -88 -119 -106 -177 -156
-46 -40 -109 -95 -175 -155 -22 -20 -130 -115 -167 -148 -11 -9 -24 -17 -29
-17 -5 0 -6 -4 -3 -10 3 -5 2 -10 -3 -10 -6 0 -23 -12 -40 -27 -40 -38 -96
-87 -172 -153 -102 -88 -167 -153 -174 -177 -4 -13 -12 -23 -17 -23 -6 0 -7
-5 -4 -10 4 -6 2 -17 -5 -25 -21 -25 -9 -137 22 -206 16 -35 33 -65 38 -67 6
-2 10 -8 10 -13 0 -16 99 -106 131 -119 16 -7 29 -16 29 -21 0 -5 3 -8 7 -7 5
1 29 -4 55 -11 53 -15 157 -10 168 9 4 6 10 11 14 11 3 -1 11 -1 16 -1 6 0 44
34 85 75 41 41 73 75 70 75 -3 0 3 8 12 18 10 10 50 53 88 96 39 43 80 90 92
103 12 13 50 56 85 95 35 39 69 77 76 84 6 7 12 17 12 23 0 6 7 11 15 11 8 0
15 4 15 9 0 5 12 22 28 38 38 39 108 117 167 187 28 32 66 75 85 96 19 20 60
66 90 100 30 35 69 78 85 96 37 40 126 140 155 174 12 14 51 58 88 99 95 105
112 125 157 176 22 26 59 67 83 91 23 25 42 47 42 50 0 2 15 19 33 37 17 19
57 62 87 97 91 104 84 102 130 47 14 -16 44 -49 67 -73 23 -24 40 -44 38 -44
-2 0 15 -20 38 -44 41 -43 107 -117 184 -205 21 -25 52 -60 70 -78 17 -18 30
-33 29 -33 -4 0 66 -78 130 -146 29 -30 50 -54 47 -54 -2 0 14 -18 36 -40 22
-22 38 -40 36 -40 -3 0 24 -30 60 -68 36 -37 65 -70 65 -73 0 -3 21 -28 48
-55 26 -28 70 -77 97 -108 28 -32 66 -75 85 -96 19 -21 55 -61 80 -90 25 -28
59 -66 75 -84 17 -18 53 -58 81 -89 29 -32 51 -57 49 -57 -1 0 16 -20 39 -44
22 -24 66 -72 96 -107 30 -35 69 -78 87 -96 18 -18 30 -33 28 -33 -15 0 108
-109 140 -124 22 -11 46 -22 54 -25 20 -10 155 6 159 19 2 5 8 8 13 4 5 -3 9
0 9 5 0 6 3 10 8 9 4 -1 17 3 30 10 12 7 22 10 22 8 0 -3 25 19 55 49 30 29
55 57 55 63 0 5 9 17 20 27 10 9 19 20 18 24 -1 3 7 24 17 46 10 22 18 48 17
58 0 9 3 15 7 13 4 -3 8 1 8 9 0 8 -5 15 -10 15 -5 0 -4 6 2 13 6 8 9 16 7 18
-3 2 -7 24 -10 48 -3 23 -10 48 -15 55 -6 7 -8 16 -4 19 3 4 1 7 -6 7 -7 0 -9
5 -6 10 3 6 1 10 -5 10 -6 0 -8 4 -5 10 3 5 -2 10 -11 10 -10 0 -14 3 -11 7 4
3 -6 17 -21 30 -15 14 -50 47 -79 74 -28 27 -54 49 -56 49 -3 0 -21 15 -39 33
-34 32 -50 46 -184 162 -38 33 -79 70 -91 82 -13 12 -23 21 -23 19 0 -2 -30
25 -67 59 -37 35 -72 61 -77 58 -5 -4 -7 -2 -4 3 3 5 -3 17 -14 27 -10 9 -18
15 -18 12 0 -3 -17 11 -39 32 -49 48 -121 113 -126 113 -3 0 -24 19 -49 43
-24 23 -68 62 -97 87 -102 88 -122 105 -154 135 -18 17 -54 48 -79 70 -26 22
-61 54 -79 70 -18 17 -50 45 -72 64 -22 18 -69 60 -105 91 -114 102 -135 120
-143 120 -5 0 -5 5 -2 10 3 6 1 10 -5 10 -10 0 -49 32 -132 111 -21 20 -38 35
-38 32 0 -2 -6 2 -13 9 -8 7 -33 30 -56 51 -31 28 -40 43 -36 58 4 10 10 17
15 14 4 -3 15 6 24 20 9 14 38 47 64 73 26 26 66 68 89 94 23 25 44 44 46 41
3 -2 8 5 12 16 3 12 11 19 16 16 5 -4 9 -1 9 4 0 6 27 39 60 73 33 34 60 66
60 71 0 6 3 8 6 5 3 -3 24 15 47 40 23 25 62 67 87 93 25 25 64 67 88 93 48
52 59 51 105 -4 14 -16 30 -30 35 -30 5 0 15 -11 22 -25 7 -14 16 -25 20 -25
4 0 25 -17 47 -37 49 -46 64 -57 83 -62 64 -16 88 -19 124 -14 23 3 47 6 54 6
6 0 12 4 12 9 0 4 4 7 8 6 10 -3 58 29 80 54 9 9 20 14 26 11 6 -3 8 -3 4 1
-3 4 360 374 808 822 l815 814 -81 80 c-44 44 -85 80 -91 80 -11 0 -48 -34
-180 -161 -44 -42 -79 -75 -79 -73 0 1 -26 -23 -59 -54 -32 -32 -107 -102
-166 -157 -59 -55 -133 -125 -165 -155 -32 -30 -94 -90 -139 -132 -45 -43 -83
-78 -85 -79 -2 -1 -45 -40 -94 -88 -50 -47 -132 -124 -182 -171 -50 -47 -130
-123 -178 -168 -70 -68 -170 -152 -140 -117 5 4 -1 14 -12 22 -11 8 -20 20
-20 26 0 7 -9 18 -20 25 -11 7 -20 16 -20 20 0 4 18 27 41 52 105 118 148 165
192 212 26 28 47 55 47 60 0 5 5 6 10 3 6 -3 10 -2 10 3 0 5 10 20 23 34 12
14 59 65 103 114 93 101 166 182 215 237 19 21 48 53 64 71 17 18 66 73 110
121 44 49 103 114 131 144 29 31 67 73 85 95 19 21 58 63 87 94 28 30 52 57
52 59 0 3 16 20 35 39 19 18 35 36 35 38 0 2 16 20 35 39 19 19 35 39 35 45 0
5 -29 40 -64 77 -36 37 -67 73 -70 81 -3 7 -15 18 -27 24 -12 7 -19 8 -17 3 2
-4 -8 -21 -24 -36 -15 -15 -28 -26 -28 -23 0 3 -10 -5 -23 -17 -13 -12 -22
-25 -20 -29 2 -5 -1 -8 -6 -8 -6 0 -28 -17 -49 -37 -21 -21 -59 -57 -84 -80
-25 -23 -43 -44 -40 -47 3 -3 1 -6 -5 -6 -10 0 -46 -33 -250 -231 -68 -66
-124 -119 -126 -119 -2 0 -44 -39 -94 -87 -190 -183 -285 -273 -288 -273 -2 0
-15 -11 -29 -25 -14 -14 -22 -25 -19 -25 4 0 -7 -10 -23 -22 -16 -13 -57 -50
-91 -83 -102 -99 -197 -189 -215 -204 -16 -11 -22 -9 -53 23 -19 20 -35 33
-35 30 0 -4 -9 3 -20 16 l-21 24 38 39 c21 22 67 70 103 107 36 38 124 130
195 205 72 76 155 163 185 195 181 187 250 262 250 271 0 5 7 9 15 9 8 0 15 3
15 8 0 4 42 50 93 104 361 378 467 490 467 498 0 10 -111 120 -121 120 -5 0
-9 6 -9 13 0 7 -8 17 -18 23 -15 10 -23 6 -50 -22z"/>
</g>
</svg>
